<svg data-v-0dd9719b="" version="1.0" xmlns="http://www.w3.org/2000/svg" xmlns:xlink="http://www.w3.org/1999/xlink" width="100%" height="100%" viewBox="0 0 340.000000 250.000000" preserveAspectRatio="xMidYMid meet" color-interpolation-filters="sRGB" style="margin: auto;"> <rect data-v-0dd9719b="" x="0" y="0" width="100%" height="100%" fill="#fff" fill-opacity="1" class="background"></rect> <rect data-v-0dd9719b="" x="0" y="0" width="100%" height="100%" fill="url(#watermark)" fill-opacity="1" class="watermarklayer"></rect> <g data-v-0dd9719b="" fill="#333" class="icon-text-wrapper icon-svg-group iconsvg" transform="translate(66.04000091552734,98.57689476013184)"><g class="iconsvg-imagesvg" transform="translate(0,0)"><g><rect fill="#333" fill-opacity="0" stroke-width="2" x="0" y="0" width="60" height="52.84620872490906" class="image-rect"></rect> <svg x="0" y="0" width="60" height="52.84620872490906" filtersec="colorsb844485096" class="image-svg-svg primary" style="overflow: visible;"><svg xmlns="http://www.w3.org/2000/svg" viewBox="0 -0.003570556640625 113.54000091552734 100.00305938720703"><title>资源 150</title><path d="M60.71 9.46V1.81S31.75-6.3 0 11.78V95.2s24.56-12.75 42.87-10.89v-8.58s-17.84-.58-35 6.55l.46-64.94S25 4.36 60.71 9.46z" fill="#ffb300"></path><path d="M52.14 14.79v83.42s27.8 8.11 61.4-10.2V5.75s-31.74 18.08-61.4 9.04zM105 82.28c-18.8 11.64-44.29 9.21-44.29 9.21V23.6C86.9 26.84 105 17.11 105 17.11z" fill="#04185c"></path></svg></svg> <!----></g></g> <g transform="translate(67,5.1981048583984375)"><g data-gra="path-name" fill-rule="" class="tp-name iconsvg-namesvg"><g transform="scale(1)"><g><path d="M22.88-41.27L14.04 0 0 0 8.78-41.27 22.88-41.27ZM52.72-41.27L57.2 0 41.99 0 41.08-10.34 29.05-10.34 24.44 0 18.14 0 37.31-41.27 52.72-41.27ZM39.13-32.76L31.2-15.08 40.63-15.08 39.13-32.76ZM96.2-29.32L85.41-29.32Q85.61-30.29 85.61-31.98L85.61-31.98Q85.61-32.95 85.48-33.9 85.34-34.84 85.02-35.59 84.7-36.34 84.05-36.76 83.4-37.18 82.36-37.18L82.36-37.18Q81.19-37.18 80.21-36.66 79.24-36.14 78.49-35.33 77.74-34.52 77.32-33.44 76.9-32.37 76.9-31.2L76.9-31.2Q76.9-29.51 77.77-28.6 78.65-27.69 80.08-27.11 81.51-26.52 83.33-26.13 85.15-25.74 87.1-25.22L87.1-25.22Q88.73-24.77 90.35-24.05 91.98-23.34 93.24-22.13 94.51-20.93 95.29-19.01 96.07-17.09 96.07-14.24L96.07-14.24Q96.07-10.14 94.45-7.35 92.82-4.55 89.96-2.79 87.1-1.04 83.17-0.26 79.24 0.52 74.62 0.52L74.62 0.52Q69.94 0.52 66.98-0.1 64.03-0.72 62.34-1.43L62.34-1.43Q60.32-2.27 59.35-3.38L59.35-3.38 61.56-12.29 73-12.29Q72.93-11.7 72.87-10.69 72.8-9.69 72.8-9.1L72.8-9.1Q72.8-8.32 73-7.48 73.19-6.63 73.61-5.92 74.04-5.2 74.81-4.75 75.59-4.29 76.77-4.29L76.77-4.29Q78.06-4.29 79.07-4.88 80.08-5.46 80.76-6.34 81.45-7.21 81.8-8.29 82.16-9.36 82.16-10.4L82.16-10.4Q82.16-11.83 81.48-12.8 80.8-13.78 79.63-14.46 78.46-15.15 76.93-15.63 75.4-16.12 73.78-16.64L73.78-16.64Q72.22-17.09 70.49-17.75 68.77-18.39 67.34-19.57 65.91-20.73 64.97-22.52 64.03-24.31 64.03-27.11L64.03-27.11Q64.03-31.27 66.14-34.09 68.25-36.92 71.47-38.68 74.69-40.43 78.52-41.18 82.36-41.93 85.8-41.93L85.8-41.93Q90.35-41.93 93.63-40.85 96.92-39.78 98.61-38.35L98.61-38.35 96.2-29.32ZM137.22-15.79L134.62-3.51Q132.99-2.73 131.27-1.98 129.55-1.24 127.6-0.68 125.65-0.13 123.34 0.2 121.03 0.52 118.3 0.52L118.3 0.52Q109.59 0.52 104.88-3.38 100.17-7.28 100.17-16.38L100.17-16.38Q100.17-21.64 101.79-26.29 103.42-30.94 106.6-34.42 109.79-37.9 114.47-39.91 119.15-41.93 125.19-41.93L125.19-41.93Q128.05-41.93 130.42-41.54 132.8-41.15 134.71-40.53 136.63-39.91 138.16-39.2 139.69-38.48 140.92-37.83L140.92-37.83 138.58-25.74 126.88-25.74Q126.95-26.39 127.04-27.43 127.14-28.47 127.21-29.54 127.27-30.62 127.34-31.66 127.4-32.7 127.4-33.41L127.4-33.41Q127.4-33.93 127.34-34.61 127.27-35.3 127.01-35.95 126.75-36.59 126.2-37.02 125.65-37.44 124.74-37.44L124.74-37.44Q123.05-37.44 121.65-36.04 120.25-34.65 119.15-32.34 118.04-30.03 117.2-27.11 116.35-24.18 115.8-21.16 115.25-18.14 114.95-15.21 114.66-12.29 114.66-10.08L114.66-10.08Q114.66-9.43 114.73-8.45 114.79-7.48 115.12-6.57 115.44-5.66 116.12-5 116.81-4.36 117.98-4.36L117.98-4.36Q119.99-4.36 121.88-6.86 123.76-9.36 125.19-15.79L125.19-15.79 137.22-15.79Z" transform="translate(0, 41.93000030517578)"></path></g> <!----> <!----> <!----> <!----> <!----> <!----> <!----></g></g> <!----></g></g><defs v-gra="od"></defs></svg>